<?xml version="1.0"?>
<svg xmlns="http://www.w3.org/2000/svg" viewBox="0 0 128 128" width="512" height="512"><title>1</title><g id="icon"><path d="M42.778,29.625,22.105,117.608c14.292,11.348,67.812,13.645,83.789,0L85.222,29.625Z" fill="#d9e2e9"/><ellipse cx="64" cy="44.298" rx="62.597" ry="14.672" fill="#c1cdd3"/><path d="M64,59.97C33.17,59.97.4,54.477.4,44.3S33.17,28.625,64,28.625s63.6,5.493,63.6,15.672S94.83,59.97,64,59.97Zm0-29.344c-36.846,0-61.6,7.069-61.6,13.672S27.154,57.97,64,57.97,125.6,50.9,125.6,44.3,100.846,30.625,64,30.625Z" fill="#2f3a5a"/><path d="M101.008,35.637c0,19.13-74.016,19.13-74.016,0S43.561,1,64,1,101.008,16.508,101.008,35.637Z" fill="#cee7fd"/><path d="M101,35.64c0,17.4-61.22,18.975-72.294,4.724,20.466,7.629,63.413,4.156,63.413-10.417A33.52,33.52,0,0,0,80.193,4.493C92.522,10.108,101,21.944,101,35.64Z" fill="#b9ddfc"/><path d="M64,50.985c-9.8,0-18.955-1.293-25.769-3.642-8.007-2.759-12.239-6.807-12.239-11.706C25.992,15.987,43.042,0,64,0s38.008,15.987,38.008,35.637C102.008,46.182,82.306,50.985,64,50.985ZM64,2C44.145,2,27.992,17.089,27.992,35.637,27.992,44.4,46.106,48.985,64,48.985s36.008-4.585,36.008-13.348C100.008,17.089,83.855,2,64,2Z" fill="#2f3a5a"/><ellipse cx="18.114" cy="43.972" rx="5.106" ry="2.687" fill="#9297ab"/><ellipse cx="110.789" cy="43.972" rx="5.106" ry="2.687" fill="#9297ab"/><ellipse cx="82.316" cy="53.29" rx="4.233" ry="2.228" fill="#9297ab"/><ellipse cx="45.684" cy="53.29" rx="4.233" ry="2.228" fill="#9297ab"/></g></svg>
